<svg width="167" height="31" viewBox="0 0 167 31" fill="none" xmlns="http://www.w3.org/2000/svg">
<path d="M21.0837 30.36C19.7397 30.36 18.7317 30.036 18.0597 29.388C17.3877 28.74 16.9317 27.636 16.6917 26.076L16.0077 21.252C15.7677 19.62 15.2037 18.348 14.3157 17.436C13.4517 16.5 12.0957 16.032 10.2477 16.032H7.43974V28.704L10.7517 29.244V30H0.167738V29.244L3.47974 28.704V2.496L0.167738 1.992V1.2H10.2477C14.1597 1.2 16.9917 1.812 18.7437 3.036C20.4957 4.26 21.3717 6.12 21.3717 8.616C21.3717 12.744 18.8757 15.132 13.8837 15.78V15.996C15.7317 16.26 17.2077 16.92 18.3117 17.976C19.4397 19.032 20.1477 20.436 20.4357 22.188L20.9037 25.284C21.0957 26.628 21.3117 27.54 21.5517 28.02C21.8157 28.5 22.2117 28.74 22.7397 28.74C23.0997 28.74 23.4837 28.632 23.8917 28.416C24.2997 28.176 24.6837 27.876 25.0437 27.516L25.6557 28.164C24.9597 28.956 24.2397 29.52 23.4957 29.856C22.7517 30.192 21.9477 30.36 21.0837 30.36ZM11.4717 15.168C13.2237 15.168 14.5797 14.64 15.5397 13.584C16.5237 12.504 17.0157 10.92 17.0157 8.832V8.076C17.0157 4.092 14.7597 2.1 10.2477 2.1H7.43974V15.168H11.4717ZM27.404 30V29.244L30.716 28.704V2.496L27.404 1.992V1.2H49.076V9.444H48.104L45.332 2.1H34.676V15.06H39.356L41.48 9.84H42.416V21.216H41.48L39.32 15.924H34.676V29.136H45.98L48.932 21.216H49.868V30H27.404ZM67.9653 30.72C65.3493 30.72 63.0573 30.084 61.0893 28.812C59.1213 27.54 57.5973 25.764 56.5173 23.484C55.4613 21.204 54.9333 18.576 54.9333 15.6C54.9333 12.624 55.4973 9.996 56.6253 7.716C57.7533 5.436 59.3253 3.66 61.3413 2.388C63.3813 1.116 65.7093 0.479998 68.3253 0.479998C70.7973 0.479998 72.8853 1.104 74.5893 2.352L76.7853 0.479998H77.5413V9.408H76.7853L74.4093 3.468C72.6813 2.028 70.6533 1.308 68.3253 1.308C66.6453 1.308 65.1333 1.74 63.7893 2.604C62.4693 3.468 61.4253 4.728 60.6573 6.384C59.9133 8.04 59.5413 10.008 59.5413 12.288V18.876C59.5413 21.156 59.8893 23.124 60.5853 24.78C61.3053 26.436 62.2893 27.708 63.5373 28.596C64.8093 29.46 66.2853 29.892 67.9653 29.892C70.0293 29.892 71.6253 29.256 72.7533 27.984C73.9053 26.712 74.4813 25.008 74.4813 22.872V19.524L71.1333 19.02V18.228H81.8973V19.02L78.5493 19.524V22.872C78.5493 24.24 78.1773 25.524 77.4333 26.724C76.6893 27.9 75.5253 28.86 73.9413 29.604C72.3573 30.348 70.3653 30.72 67.9653 30.72ZM105.71 30.36C104.366 30.36 103.358 30.036 102.686 29.388C102.014 28.74 101.558 27.636 101.318 26.076L100.634 21.252C100.394 19.62 99.8305 18.348 98.9425 17.436C98.0785 16.5 96.7225 16.032 94.8745 16.032H92.0665V28.704L95.3785 29.244V30H84.7945V29.244L88.1065 28.704V2.496L84.7945 1.992V1.2H94.8745C98.7865 1.2 101.618 1.812 103.37 3.036C105.122 4.26 105.998 6.12 105.998 8.616C105.998 12.744 103.502 15.132 98.5105 15.78V15.996C100.358 16.26 101.834 16.92 102.938 17.976C104.066 19.032 104.774 20.436 105.062 22.188L105.53 25.284C105.722 26.628 105.938 27.54 106.178 28.02C106.442 28.5 106.838 28.74 107.366 28.74C107.726 28.74 108.11 28.632 108.518 28.416C108.926 28.176 109.31 27.876 109.67 27.516L110.282 28.164C109.586 28.956 108.866 29.52 108.122 29.856C107.378 30.192 106.574 30.36 105.71 30.36ZM96.0985 15.168C97.8505 15.168 99.2065 14.64 100.166 13.584C101.15 12.504 101.642 10.92 101.642 8.832V8.076C101.642 4.092 99.3865 2.1 94.8745 2.1H92.0665V15.168H96.0985ZM109.583 30V29.244L113.111 27.804L123.515 0.479998H124.091L133.919 28.704L137.231 29.244V30H126.647V29.244L129.599 28.776L126.539 20.244H116.963L114.047 27.804L117.287 29.244V30H109.583ZM117.251 19.488H126.287L121.967 6.816L117.251 19.488ZM138.986 29.244L142.298 28.704V2.496L138.986 1.992V1.2H152.774C155.414 1.2 157.754 1.8 159.794 3C161.858 4.176 163.466 5.856 164.618 8.04C165.77 10.2 166.346 12.72 166.346 15.6C166.346 18.48 165.77 21.012 164.618 23.196C163.466 25.356 161.858 27.036 159.794 28.236C157.73 29.412 155.39 30 152.774 30H138.986V29.244ZM152.774 29.136C154.526 29.136 156.074 28.728 157.418 27.912C158.786 27.096 159.854 25.884 160.622 24.276C161.39 22.644 161.774 20.676 161.774 18.372V12.828C161.774 10.524 161.39 8.568 160.622 6.96C159.854 5.352 158.786 4.14 157.418 3.324C156.074 2.508 154.526 2.1 152.774 2.1H146.258V29.136H152.774Z" fill="white"/>
</svg>
